# xmcd CD database file
# Copyright (C) 1993-1998 Ti Kan
# 
# Track frame offsets:
#     182
#     15497
#     35345
#     55015
#     72912
#     91887
#     108802
#     126095
#     143745
#     161537
#     177785
#     191120
#     206050
#     219607
#     239070
#     256180
#     267895
# 
# Disc length: 3759 seconds
# 
# Revision: 1
# Processed by: cddbd v1.4b41PL1 Copyright (c) Steve Scherf et al.
# Submitted via: DiscPlay 4.0.4
# 
DISCID=ed0ead11
DTITLE=Kenny Rogers - Kenny Rogers His Greatest Hits and Finest Proformances
DYEAR=1900
DGENRE=
TTITLE0=Why Don't We Go Somewhere And Love
TTITLE1=Coward of the County
TTITLE2=Long Arm of the Law
TTITLE3=Scarlet Fever
TTITLE4=Momma's Waiting
TTITLE5=San Francisco Mabel Joy
TTITLE6=We've Got Tonight
TTITLE7=All My Life
TTITLE8=What I Learned From Loving You
TTITLE9=Green, Green Grass of Home
TTITLE10=Together Again
TTITLE11=A Love Song
TTITLE12=Puttin' in Overtime at Home
TTITLE13=Sweet Music Man
TTITLE14=Desperado
TTITLE15=Blaze of Glory
TTITLE16=Today I Started Loving You Again
EXTD=
EXTT0=
EXTT1=
EXTT2=
EXTT3=
EXTT4=
EXTT5=
EXTT6=with Sheena Easton\n
EXTT7=
EXTT8=
EXTT9=
EXTT10=with Dottie West\n
EXTT11=
EXTT12=
EXTT13=
EXTT14=
EXTT15=
EXTT16=
PLAYORDER=
